<?xml version="1.0" encoding="UTF-8"?>
<svg id="Layer_1" data-name="Layer 1" xmlns="http://www.w3.org/2000/svg" viewBox="0 0 240.18 57.25">
  <defs>
    <style>
      .cls-1 {
        fill: #fff;
      }
    </style>
  </defs>
  <g id="wmms">
    <path class="cls-1" d="M228.27.36h8.73v17.45h-8.73V.36ZM213.16,9.08l-.5.17s3.02,2.52,3.02,2.69c.17.17.34.17.17.67s-.34,1.01-.34,1.01c0,0,2.69-.5,3.02-.67.34,0,.5,0,.5.34s-.17,3.19-.17,3.19h.84s-.17-3.02-.17-3.19c0-.34.17-.34.5-.34s3.02.67,3.02.67c0,0-.17-.67-.34-1.01-.17-.5,0-.5.17-.67s3.02-2.69,3.02-2.69l-.5-.17c-.34-.17-.17-.34-.17-.5s.5-1.85.5-1.85c0,0-1.34.34-1.51.34s-.34,0-.34-.17-.34-.84-.34-.84c0,0-1.51,1.68-1.68,1.85-.34.34-.67,0-.5-.34,0-.34.84-3.86.84-3.86,0,0-.84.5-1.17.67s-.5.17-.5-.17c-.17-.34-1.17-2.18-1.17-2.35,0,0-1.01,2.01-1.17,2.35-.16.34-.34.34-.5.17-.34-.17-1.17-.67-1.17-.67,0,0,.84,3.52.84,3.86s-.17.5-.5.34l-1.68-1.85s-.17.5-.34.67c0,.17-.17.34-.34.17-.34,0-1.68-.34-1.68-.34,0,0,.5,1.68.67,1.85,0,.17,0,.5-.34.67h0ZM201.92.36h8.73v17.45h-8.73V.36Z"/>
    <path class="cls-1" d="M238.84,52.72c-.67,1.51-2.01,2.01-2.85,2.01-1.01,0-4.03-.17-4.03-8.06v-16.95c0-5.2-4.03-9.4-14.43-9.4-11.24,0-11.41,5.54-11.41,6.88-.17,1.51.67,3.19,3.52,3.19,2.52,0,3.19-2.85,3.52-3.86.34-1.17.5-4.53,5.03-4.53,3.86,0,6.21,3.36,6.38,8.22v2.69h0v.17c-.34,1.68-1.17,2.52-2.69,3.19-2.01,1.01-7.89,1.85-8.56,2.01-2.35.5-8.9,2.18-8.73,9.06.17,6.71,6.88,9.06,11.58,8.9,4.53-.17,7.22-2.01,8.39-3.02.45-.33.84-.28,1.17.17.67.67,2.85,2.85,8.06,2.85s6.04-2.52,6.38-3.36c.17-.5-1.01-1.01-1.34-.17h0ZM217.86,54.57c-4.7,0-5.87-3.86-5.87-5.87,0-1.85,1.01-5.71,5.71-8.39,0,0,2.18-1.34,6.38-3.02h.34s.17.17.17.34h0v.17h0v.17h0v7.05c0,5.54-2.69,9.57-6.71,9.57l-.02-.02ZM202.42,54.4c-.67-.17-4.87.34-4.87-12.42V1.87c0-.5,0-1.85-1.51-1.85s-11.58.5-12.25.67c-.67,0-1.17.84,0,.84,1.17.17,6.55.5,6.55,9.4v12.25c0,.34,0,.5-.17.67v.17h0c-.17.17-.34,0-.84-.34-.84-.67-4.7-3.02-9.57-3.02-7.89,0-17.62,5.71-17.62,17.45,0,12.59,8.9,18.63,18.13,18.63,4.53,0,7.72-2.01,8.9-2.69,1.34-.84,1.17-.67,1.34.5.17.84,0,2.52,2.35,2.35,2.52-.34,8.56-1.01,9.73-1.17,1.17-.5.84-1.17-.17-1.34h0ZM181.61,54.9c-7.38,0-11.24-8.73-11.24-17.12,0-9.23,5.2-15.44,10.74-15.1,7.22.5,9.06,6.21,9.23,16.45v2.18c-.17,10.07-4.36,13.59-8.73,13.59ZM161.97,52.72c-.67,1.51-2.01,2.01-2.85,2.01-1.01,0-4.03-.17-4.03-8.06v-16.95c0-5.2-4.03-9.4-14.43-9.4-11.24,0-11.41,5.54-11.41,6.88-.17,1.51.67,3.19,3.52,3.19,2.52,0,3.19-2.85,3.52-3.86.34-1.17.5-4.53,5.03-4.53,3.86,0,6.38,3.36,6.38,8.39v1.68c-.17,2.52-.84,3.36-2.85,4.36s-7.89,1.85-8.56,2.01c-2.35.5-8.9,2.18-8.73,9.06.17,6.71,6.88,9.06,11.58,8.9,4.53-.17,7.22-2.01,8.39-3.02.45-.33.84-.28,1.17.17.67.67,2.85,2.85,8.06,2.85s6.04-2.52,6.38-3.36c.34-.67-.67-1.17-1.17-.34v.02ZM141.16,54.57c-4.7,0-5.87-3.86-5.87-5.87,0-1.85,1.01-5.71,5.71-8.39,0,0,2.18-1.34,6.38-3.02h.34v.17h0v.67-.17,7.22c0,5.37-2.69,9.4-6.55,9.4h-.01ZM125.05,54.4c-1.34-.34-3.69-1.85-3.69-9.23v-13.43c0-3.19.34-11.41-12.25-11.41-6.55,0-10.24,3.36-10.57,3.52-.5.5-.84.67-1.01-.17-.17-.67-.5-1.68-.67-2.35-.17-.5-.5-1.01-1.68-.84s-8.56,1.34-9.9,1.68c-1.17.34-.84.84,0,1.01s4.87.5,4.87,7.38v14.43c0,8.39-1.68,9.06-3.19,9.57-2.01.5-1.01,1.17-.17,1.17h15.27c1.01,0,1.51-1.01-.5-1.34s-3.86-1.51-3.86-8.06v-9.23c0-3.52-.84-14.27,8.9-14.43,6.88-.17,7.55,5.54,7.55,9.23v14.27c0,5.87-1.68,7.72-3.69,8.06-1.85.34-1.51,1.17-.5,1.17h15.61c.84.34,1.68-.5-.5-1.01h-.02ZM84.27,52.72c-.67,1.51-2.01,2.01-2.85,2.01-1.01,0-4.03-.17-4.03-8.06v-16.95c0-5.2-4.03-9.4-14.43-9.4-11.24,0-11.41,5.54-11.41,6.88-.17,1.51.67,3.19,3.52,3.19,2.52,0,3.19-2.85,3.52-3.86.34-1.17.5-4.53,5.03-4.53,3.86,0,6.21,3.36,6.38,8.22v1.85c0,.34,0,.67-.17.84v.17h0c-.34,1.68-1.17,2.52-2.69,3.19-2.01,1.01-7.89,1.85-8.56,2.01-2.35.5-8.9,2.18-8.73,9.06.17,6.71,6.88,9.06,11.58,8.9,4.53-.17,7.22-2.01,8.39-3.02.45-.33.84-.28,1.17.17.67.67,2.85,2.85,8.06,2.85s6.04-2.52,6.38-3.36c.34-.5-.84-1.01-1.17-.17h.01ZM63.29,54.57c-4.7,0-5.87-3.86-5.87-5.87s1.01-5.71,5.71-8.39c0,0,2.18-1.34,6.38-3.02h.34s.17.17.17.34h0v.34h0v.17h0v7.05c0,5.37-2.69,9.4-6.71,9.4l-.02-.02ZM47.18,39.96c-1.68,5.37-4.87,14.1-16.45,14.43-12.08.17-19.3-8.06-19.64-23.33-.5-16.27,6.55-28.69,17.46-29.03,12.25-.17,16.62,14.43,16.78,16.62.17,1.68,2.35,1.51,2.35-.17,0-.84-1.01-15.27-1.34-16.95-.34-1.68-1.68-1.01-2.01-.34-.17.5.17-.5-.5,1.01-.67,1.51-2.52.67-3.19.5C38.62,1.87,34.76-.15,28.55,0,14.28.36-.32,10.93,0,29.39c.34,17.96,14.77,28.03,28.2,27.86,12.25-.17,19.13-7.89,21.15-16.78.67-2.18-1.51-2.69-2.18-.5h0Z"/>
  </g>
</svg>