<?xml version="1.0" encoding="UTF-8"?>
<svg id="Layer_1" xmlns="http://www.w3.org/2000/svg" version="1.1" xmlns:xlink="http://www.w3.org/1999/xlink" viewBox="0 0 322.27 25.74">
  <!-- Generator: Adobe Illustrator 30.5.0, SVG Export Plug-In . SVG Version: 2.1.4 Build 167)  -->
  <defs>
    <style>
      .st0 {
        clip-path: url(#clippath-34);
      }

      .st1 {
        clip-path: url(#clippath-38);
      }

      .st2 {
        clip-path: url(#clippath-21);
      }

      .st3 {
        clip-path: url(#clippath-6);
      }

      .st4 {
        clip-path: url(#clippath-7);
      }

      .st5 {
        clip-path: url(#clippath-17);
      }

      .st6 {
        clip-path: url(#clippath-31);
      }

      .st7 {
        clip-path: url(#clippath-15);
      }

      .st8 {
        clip-path: url(#clippath-33);
      }

      .st9 {
        clip-path: url(#clippath-18);
      }

      .st10 {
        clip-path: url(#clippath-4);
      }

      .st11 {
        clip-path: url(#clippath-22);
      }

      .st12 {
        clip-path: url(#clippath-23);
      }

      .st13 {
        clip-path: url(#clippath-9);
      }

      .st14 {
        clip-path: url(#clippath-10);
      }

      .st15 {
        clip-path: url(#clippath-42);
      }

      .st16 {
        clip-path: url(#clippath-43);
      }

      .st17 {
        clip-path: url(#clippath-25);
      }

      .st18 {
        clip-path: url(#clippath-27);
      }

      .st19 {
        clip-path: url(#clippath-11);
      }

      .st20 {
        fill: none;
      }

      .st21 {
        clip-path: url(#clippath-36);
      }

      .st22 {
        clip-path: url(#clippath-35);
      }

      .st23 {
        clip-path: url(#clippath-28);
      }

      .st24 {
        clip-path: url(#clippath-1);
      }

      .st25 {
        clip-path: url(#clippath-45);
      }

      .st26 {
        clip-path: url(#clippath-40);
      }

      .st27 {
        clip-path: url(#clippath-5);
      }

      .st28 {
        clip-path: url(#clippath-20);
      }

      .st29 {
        clip-path: url(#clippath-8);
      }

      .st30 {
        clip-path: url(#clippath-41);
      }

      .st31 {
        clip-path: url(#clippath-3);
      }

      .st32 {
        clip-path: url(#clippath-26);
      }

      .st33 {
        clip-path: url(#clippath-12);
      }

      .st34 {
        clip-path: url(#clippath-14);
      }

      .st35 {
        clip-path: url(#clippath-30);
      }

      .st36 {
        clip-path: url(#clippath-19);
      }

      .st37 {
        clip-path: url(#clippath-32);
      }

      .st38 {
        fill: #eb2d37;
      }

      .st39 {
        clip-path: url(#clippath-39);
      }

      .st40 {
        clip-path: url(#clippath-16);
      }

      .st41 {
        clip-path: url(#clippath-2);
      }

      .st42 {
        clip-path: url(#clippath-29);
      }

      .st43 {
        clip-path: url(#clippath-37);
      }

      .st44 {
        clip-path: url(#clippath-13);
      }

      .st45 {
        clip-path: url(#clippath-24);
      }

      .st46 {
        clip-path: url(#clippath);
      }

      .st47 {
        clip-path: url(#clippath-44);
      }
    </style>
    <clipPath id="clippath">
      <rect class="st20" width="322.26" height="25.74"/>
    </clipPath>
    <clipPath id="clippath-1">
      <rect class="st20" width="322.26" height="25.74"/>
    </clipPath>
    <clipPath id="clippath-2">
      <rect class="st20" width="322.26" height="25.74"/>
    </clipPath>
    <clipPath id="clippath-3">
      <rect class="st20" width="322.26" height="25.74"/>
    </clipPath>
    <clipPath id="clippath-4">
      <rect class="st20" width="322.26" height="25.74"/>
    </clipPath>
    <clipPath id="clippath-5">
      <rect class="st20" width="322.26" height="25.74"/>
    </clipPath>
    <clipPath id="clippath-6">
      <rect class="st20" width="322.26" height="25.74"/>
    </clipPath>
    <clipPath id="clippath-7">
      <rect class="st20" width="322.26" height="25.74"/>
    </clipPath>
    <clipPath id="clippath-8">
      <rect class="st20" width="322.26" height="25.74"/>
    </clipPath>
    <clipPath id="clippath-9">
      <rect class="st20" width="322.26" height="25.74"/>
    </clipPath>
    <clipPath id="clippath-10">
      <rect class="st20" width="322.26" height="25.74"/>
    </clipPath>
    <clipPath id="clippath-11">
      <rect class="st20" width="322.26" height="25.74"/>
    </clipPath>
    <clipPath id="clippath-12">
      <rect class="st20" width="322.26" height="25.74"/>
    </clipPath>
    <clipPath id="clippath-13">
      <rect class="st20" width="322.26" height="25.74"/>
    </clipPath>
    <clipPath id="clippath-14">
      <rect class="st20" width="322.26" height="25.74"/>
    </clipPath>
    <clipPath id="clippath-15">
      <rect class="st20" width="322.26" height="25.74"/>
    </clipPath>
    <clipPath id="clippath-16">
      <rect class="st20" width="322.26" height="25.74"/>
    </clipPath>
    <clipPath id="clippath-17">
      <rect class="st20" width="322.26" height="25.74"/>
    </clipPath>
    <clipPath id="clippath-18">
      <rect class="st20" width="322.26" height="25.74"/>
    </clipPath>
    <clipPath id="clippath-19">
      <rect class="st20" width="322.26" height="25.74"/>
    </clipPath>
    <clipPath id="clippath-20">
      <rect class="st20" width="322.26" height="25.74"/>
    </clipPath>
    <clipPath id="clippath-21">
      <rect class="st20" width="322.26" height="25.74"/>
    </clipPath>
    <clipPath id="clippath-22">
      <rect class="st20" width="322.26" height="25.74"/>
    </clipPath>
    <clipPath id="clippath-23">
      <rect class="st20" width="322.26" height="25.74"/>
    </clipPath>
    <clipPath id="clippath-24">
      <rect class="st20" width="322.26" height="25.74"/>
    </clipPath>
    <clipPath id="clippath-25">
      <rect class="st20" width="322.26" height="25.74"/>
    </clipPath>
    <clipPath id="clippath-26">
      <rect class="st20" width="322.26" height="25.74"/>
    </clipPath>
    <clipPath id="clippath-27">
      <rect class="st20" width="322.26" height="25.74"/>
    </clipPath>
    <clipPath id="clippath-28">
      <rect class="st20" width="322.26" height="25.74"/>
    </clipPath>
    <clipPath id="clippath-29">
      <rect class="st20" width="322.26" height="25.74"/>
    </clipPath>
    <clipPath id="clippath-30">
      <rect class="st20" width="322.26" height="25.74"/>
    </clipPath>
    <clipPath id="clippath-31">
      <rect class="st20" width="322.26" height="25.74"/>
    </clipPath>
    <clipPath id="clippath-32">
      <rect class="st20" width="322.26" height="25.74"/>
    </clipPath>
    <clipPath id="clippath-33">
      <rect class="st20" width="322.26" height="25.74"/>
    </clipPath>
    <clipPath id="clippath-34">
      <rect class="st20" width="322.26" height="25.74"/>
    </clipPath>
    <clipPath id="clippath-35">
      <rect class="st20" width="322.26" height="25.74"/>
    </clipPath>
    <clipPath id="clippath-36">
      <rect class="st20" width="322.26" height="25.74"/>
    </clipPath>
    <clipPath id="clippath-37">
      <rect class="st20" width="322.26" height="25.74"/>
    </clipPath>
    <clipPath id="clippath-38">
      <rect class="st20" width="322.26" height="25.74"/>
    </clipPath>
    <clipPath id="clippath-39">
      <rect class="st20" width="322.26" height="25.74"/>
    </clipPath>
    <clipPath id="clippath-40">
      <rect class="st20" width="322.26" height="25.74"/>
    </clipPath>
    <clipPath id="clippath-41">
      <rect class="st20" width="322.26" height="25.74"/>
    </clipPath>
    <clipPath id="clippath-42">
      <rect class="st20" width="322.26" height="25.74"/>
    </clipPath>
    <clipPath id="clippath-43">
      <rect class="st20" width="322.26" height="25.74"/>
    </clipPath>
    <clipPath id="clippath-44">
      <rect class="st20" width="322.26" height="25.74"/>
    </clipPath>
    <clipPath id="clippath-45">
      <rect class="st20" width="322.26" height="25.74"/>
    </clipPath>
  </defs>
  <g id="FR_x5F_RGB_x5F_SPC_x5F_SSC">
    <g class="st46">
      <g>
        <g class="st24">
          <path d="M222.61,3.36c-.07-1.63-1.42-2.14-2.61-2.14-.9,0-2.4.25-2.4,1.85,0,.9.63,1.19,1.25,1.34l3.01.69c1.36.32,2.39,1.14,2.39,2.82,0,2.49-2.32,3.18-4.12,3.18-1.95,0-2.71-.58-3.18-1.01-.9-.81-1.07-1.69-1.07-2.67h1.34c0,1.91,1.55,2.46,2.9,2.46,1.03,0,2.76-.26,2.76-1.78,0-1.1-.51-1.45-2.24-1.86l-2.16-.5c-.69-.16-2.24-.65-2.24-2.48C216.24,1.62,217.31,0,219.86,0,223.54,0,223.9,2.2,223.96,3.36c0,0-1.35,0-1.35,0Z"/>
        </g>
        <g class="st41">
          <path d="M232.12,10.81h-1.29v-5.02c0-1.04-.29-1.72-1.53-1.72-1.06,0-2.14.62-2.14,2.55v4.18h-1.29V.28h1.29v3.89h.03c.37-.49,1.01-1.25,2.25-1.25s2.68.49,2.68,2.67v5.22Z"/>
        </g>
        <g class="st31">
          <path d="M238.7,6.89c-.2.16-.53.28-2.13.48-.63.09-1.64.28-1.64,1.25,0,.83.42,1.33,1.39,1.33,1.2,0,2.38-.78,2.38-1.8v-1.26ZM233.98,5.47c.06-1.83,1.27-2.55,3.16-2.55.62,0,2.84.18,2.84,2.14v4.41c0,.32.16.46.43.46.12,0,.28-.03.42-.06v.94c-.22.06-.41.15-.7.15-1.14,0-1.32-.59-1.36-1.17-.5.54-1.27,1.25-2.77,1.25-1.41,0-2.4-.89-2.4-2.21,0-.65.19-2.14,2.33-2.4l2.13-.27c.31-.03.68-.14.68-.91,0-.81-.59-1.24-1.8-1.24-1.47,0-1.67.89-1.76,1.48h-1.2v-.02Z"/>
        </g>
        <g class="st10">
          <path d="M243.63,10.81h-1.29V3.14h1.22v1.28h.03c.51-.9,1.19-1.5,2.15-1.5.16,0,.24,0,.34.04v1.33h-.48c-1.2,0-1.97.94-1.97,2.05v4.47Z"/>
        </g>
        <g class="st27">
          <path d="M252.04,6.36c-.08-1.19-.57-2.28-2.14-2.28-1.19,0-2.13,1.1-2.13,2.28h4.27ZM253.27,8.4c-.05.37-.4,1.45-1.36,2.1-.35.23-.85.53-2.08.53-2.16,0-3.43-1.63-3.43-3.84,0-2.37,1.14-4.27,3.68-4.27,2.22,0,3.3,1.76,3.3,4.47h-5.6c0,1.6.75,2.52,2.23,2.52,1.22,0,1.94-.94,1.98-1.51,0,0,1.28,0,1.28,0Z"/>
        </g>
        <g class="st3">
          <path d="M257.86,9.91c.82,0,2.1-.54,2.1-2.58,0-1.24-.2-3.26-2.07-3.26-2,0-2.1,1.89-2.1,2.88.01,1.69.67,2.96,2.07,2.96M261.26,10.81h-1.22v-1.06h-.03c-.56,1.04-1.44,1.28-2.19,1.28-2.61,0-3.37-2.45-3.37-4.28,0-2.16,1.16-3.83,3.19-3.83,1.39,0,1.98.86,2.29,1.3l.03-.1V.28h1.29v10.53h0Z"/>
        </g>
        <g class="st4">
          <path d="M273.64,3.36c-.08-1.63-1.43-2.14-2.61-2.14-.9,0-2.4.25-2.4,1.85,0,.9.63,1.19,1.24,1.34l3.01.69c1.36.32,2.39,1.14,2.39,2.82,0,2.49-2.32,3.18-4.12,3.18-1.95,0-2.71-.58-3.18-1.01-.89-.81-1.07-1.69-1.07-2.67h1.34c0,1.91,1.55,2.46,2.9,2.46,1.03,0,2.76-.26,2.76-1.78,0-1.1-.51-1.45-2.24-1.86l-2.16-.5c-.69-.16-2.24-.65-2.24-2.48C267.26,1.62,268.33,0,270.88,0c3.68,0,4.05,2.2,4.11,3.36,0,0-1.35,0-1.35,0Z"/>
        </g>
        <g class="st29">
          <path d="M282.17,6.36c-.07-1.19-.57-2.28-2.14-2.28-1.19,0-2.13,1.1-2.13,2.28h4.27ZM283.41,8.4c-.05.37-.4,1.45-1.36,2.1-.36.23-.85.53-2.08.53-2.15,0-3.43-1.63-3.43-3.84,0-2.37,1.15-4.27,3.68-4.27,2.22,0,3.3,1.76,3.3,4.47h-5.6c0,1.6.75,2.52,2.23,2.52,1.22,0,1.94-.94,1.98-1.51,0,0,1.28,0,1.28,0Z"/>
        </g>
        <g class="st13">
          <path d="M286.51,10.81h-1.29V3.14h1.22v1.28h.03c.51-.9,1.18-1.5,2.15-1.5.16,0,.24,0,.34.04v1.33h-.48c-1.21,0-1.97.94-1.97,2.05v4.47h0Z"/>
        </g>
        <g class="st14">
          <polygon points="295.21 3.14 296.62 3.14 293.7 10.81 292.32 10.81 289.52 3.14 291.02 3.14 293.02 9.39 293.04 9.39 295.21 3.14"/>
        </g>
        <g class="st19">
          <path d="M299.01,10.81h-1.29V3.14h1.29v7.67ZM297.72.28h1.29v1.47h-1.29V.28Z"/>
        </g>
        <g class="st33">
          <path d="M305.73,5.72c-.16-1.03-.73-1.64-1.82-1.64-1.6,0-2.11,1.53-2.11,2.89s.32,2.95,2.1,2.95c.86,0,1.61-.65,1.83-1.82h1.25c-.13,1.22-.88,2.93-3.12,2.93s-3.43-1.63-3.43-3.84c0-2.37,1.15-4.27,3.68-4.27,2,0,2.77,1.47,2.87,2.8,0,0-1.25,0-1.25,0Z"/>
        </g>
        <g class="st44">
          <path d="M313.55,6.36c-.07-1.19-.57-2.28-2.14-2.28-1.19,0-2.13,1.1-2.13,2.28h4.27ZM314.77,8.4c-.04.37-.39,1.45-1.36,2.1-.35.23-.85.53-2.08.53-2.16,0-3.43-1.63-3.43-3.84,0-2.37,1.14-4.27,3.68-4.27,2.22,0,3.3,1.76,3.3,4.47h-5.6c0,1.6.75,2.52,2.23,2.52,1.22,0,1.94-.94,1.98-1.51,0,0,1.28,0,1.28,0Z"/>
        </g>
        <g class="st34">
          <path d="M320.77,5.32c-.02-.48-.19-1.29-1.82-1.29-.4,0-1.52.13-1.52,1.08,0,.63.4.78,1.39,1.03l1.29.33c1.6.4,2.16.98,2.16,2.02,0,1.58-1.31,2.54-3.04,2.54-3.03,0-3.25-1.76-3.3-2.68h1.25c.04.6.22,1.57,2.04,1.57.92,0,1.76-.37,1.76-1.22,0-.62-.42-.82-1.52-1.1l-1.49-.37c-1.07-.26-1.77-.81-1.77-1.86,0-1.69,1.39-2.45,2.9-2.45,2.74,0,2.93,2.02,2.93,2.4,0,0-1.26,0-1.26,0Z"/>
        </g>
        <g class="st7">
          <path d="M223.65,18.1c-.39-1.85-1.93-2.18-2.94-2.18-1.91,0-3.44,1.4-3.44,4.18,0,2.48.88,4.38,3.49,4.38.92,0,2.52-.44,3-2.89h1.38c-.59,3.97-3.81,4.15-4.6,4.15-2.39,0-4.74-1.55-4.74-5.6,0-3.24,1.85-5.48,4.91-5.48,2.71,0,4.12,1.69,4.33,3.44,0,0-1.39,0-1.39,0Z"/>
        </g>
        <g class="st40">
          <path d="M230.99,21.54c-.2.16-.53.28-2.12.49-.63.09-1.64.28-1.64,1.24,0,.84.43,1.34,1.39,1.34,1.2,0,2.37-.78,2.37-1.8v-1.27ZM226.27,20.12c.06-1.84,1.27-2.55,3.16-2.55.62,0,2.85.18,2.85,2.14v4.41c0,.32.16.45.42.45.12,0,.28-.03.43-.06v.94c-.22.06-.41.14-.71.14-1.14,0-1.32-.59-1.36-1.17-.5.54-1.28,1.24-2.77,1.24-1.41,0-2.4-.9-2.4-2.21,0-.64.19-2.14,2.33-2.4l2.13-.27c.31-.03.68-.14.68-.91,0-.81-.59-1.25-1.8-1.25-1.47,0-1.67.9-1.76,1.48h-1.2v.02Z"/>
        </g>
        <g class="st5">
          <path d="M240.7,25.46h-1.29v-4.72c0-1.33-.38-2.01-1.64-2.01-.73,0-2.03.47-2.03,2.55v4.18h-1.29v-7.67h1.22v1.09h.03c.28-.41,1-1.3,2.32-1.3,1.19,0,2.68.48,2.68,2.67v5.21h0Z"/>
        </g>
        <g class="st9">
          <path d="M247.28,21.54c-.2.16-.53.28-2.13.49-.63.09-1.64.28-1.64,1.24,0,.84.43,1.34,1.4,1.34,1.2,0,2.37-.78,2.37-1.8v-1.27h0ZM242.56,20.12c.06-1.84,1.27-2.55,3.17-2.55.62,0,2.84.18,2.84,2.14v4.41c0,.32.16.45.42.45.12,0,.28-.03.43-.06v.94c-.22.06-.41.14-.71.14-1.14,0-1.32-.59-1.36-1.17-.5.54-1.28,1.24-2.77,1.24-1.41,0-2.41-.9-2.41-2.21,0-.64.19-2.14,2.33-2.4l2.13-.27c.31-.03.67-.14.67-.91,0-.81-.59-1.25-1.8-1.25-1.47,0-1.67.9-1.76,1.48h-1.18v.02Z"/>
        </g>
        <g class="st36">
          <path d="M253.72,24.56c.82,0,2.09-.54,2.09-2.58,0-1.24-.2-3.25-2.07-3.25-2,0-2.1,1.89-2.1,2.87.01,1.69.67,2.96,2.08,2.96M257.12,25.46h-1.22v-1.05h-.03c-.56,1.04-1.44,1.27-2.19,1.27-2.61,0-3.37-2.45-3.37-4.28,0-2.16,1.16-3.83,3.2-3.83,1.39,0,1.98.86,2.28,1.3l.03-.11v-3.84h1.29v10.54h.01Z"/>
        </g>
        <g class="st28">
          <path d="M263.58,21.54c-.2.16-.53.28-2.13.49-.63.09-1.64.28-1.64,1.24,0,.84.42,1.34,1.39,1.34,1.2,0,2.38-.78,2.38-1.8v-1.27ZM258.86,20.12c.06-1.84,1.28-2.55,3.17-2.55.62,0,2.84.18,2.84,2.14v4.41c0,.32.16.45.43.45.12,0,.28-.03.43-.06v.94c-.22.06-.41.14-.7.14-1.15,0-1.32-.59-1.36-1.17-.5.54-1.28,1.24-2.77,1.24-1.4,0-2.4-.9-2.4-2.21,0-.64.19-2.14,2.33-2.4l2.13-.27c.31-.03.68-.14.68-.91,0-.81-.59-1.25-1.8-1.25-1.47,0-1.67.9-1.76,1.48h-1.22v.02Z"/>
        </g>
        <g class="st2">
          <path d="M82.26,3.36c-.07-1.63-1.42-2.14-2.61-2.14-.9,0-2.4.25-2.4,1.85,0,.9.63,1.19,1.24,1.34l3.01.69c1.36.32,2.39,1.14,2.39,2.82,0,2.49-2.32,3.18-4.12,3.18-1.95,0-2.71-.59-3.18-1.01-.9-.81-1.07-1.69-1.07-2.67h1.34c0,1.91,1.55,2.46,2.9,2.46,1.03,0,2.76-.26,2.76-1.78,0-1.1-.51-1.45-2.25-1.86l-2.15-.5c-.69-.16-2.24-.65-2.24-2.48C75.88,1.62,76.95,0,79.5,0,83.18,0,83.55,2.2,83.6,3.36c0,0-1.34,0-1.34,0Z"/>
        </g>
        <g class="st11">
          <path d="M90.8,6.37c-.07-1.19-.57-2.29-2.14-2.29-1.19,0-2.13,1.1-2.13,2.29h4.27ZM92.03,8.4c-.04.37-.4,1.45-1.36,2.09-.35.24-.85.53-2.08.53-2.16,0-3.43-1.63-3.43-3.84,0-2.37,1.15-4.26,3.68-4.26,2.22,0,3.3,1.76,3.3,4.47h-5.6c0,1.6.75,2.52,2.23,2.52,1.22,0,1.94-.94,1.98-1.51,0,0,1.28,0,1.28,0Z"/>
        </g>
        <g class="st12">
          <path d="M95.13,10.81h-1.29V3.14h1.22v1.28h.03c.51-.9,1.19-1.5,2.15-1.5.16,0,.24,0,.34.04v1.33h-.48c-1.2,0-1.97.94-1.97,2.05v4.47Z"/>
        </g>
        <g class="st45">
          <polygon points="103.84 3.14 105.24 3.14 102.33 10.81 100.95 10.81 98.15 3.14 99.65 3.14 101.64 9.39 101.67 9.39 103.84 3.14"/>
        </g>
        <g class="st17">
          <path d="M107.63,10.81h-1.29V3.14h1.29v7.67ZM106.34.28h1.29v1.47h-1.29V.28Z"/>
        </g>
        <g class="st32">
          <path d="M114.36,5.72c-.16-1.03-.73-1.64-1.82-1.64-1.6,0-2.11,1.53-2.11,2.89s.32,2.95,2.1,2.95c.86,0,1.61-.65,1.83-1.82h1.24c-.13,1.22-.88,2.93-3.12,2.93s-3.43-1.63-3.43-3.84c0-2.37,1.14-4.26,3.68-4.26,2.01,0,2.77,1.47,2.87,2.8h-1.24Z"/>
        </g>
        <g class="st18">
          <path d="M122.17,6.37c-.07-1.19-.57-2.29-2.14-2.29-1.19,0-2.13,1.1-2.13,2.29h4.27ZM123.4,8.4c-.04.37-.4,1.45-1.36,2.09-.35.24-.85.53-2.08.53-2.16,0-3.43-1.63-3.43-3.84,0-2.37,1.14-4.26,3.68-4.26,2.21,0,3.3,1.76,3.3,4.47h-5.6c0,1.6.75,2.52,2.23,2.52,1.22,0,1.94-.94,1.98-1.51,0,0,1.28,0,1.28,0Z"/>
        </g>
        <g class="st23">
          <path d="M129.39,5.32c0-.48-.19-1.29-1.82-1.29-.4,0-1.53.13-1.53,1.08,0,.63.4.78,1.4,1.03l1.29.32c1.6.4,2.15.98,2.15,2.02,0,1.58-1.31,2.54-3.04,2.54-3.03,0-3.25-1.76-3.3-2.68h1.25c.04.6.22,1.57,2.04,1.57.92,0,1.76-.37,1.76-1.22,0-.62-.42-.82-1.53-1.1l-1.49-.37c-1.07-.26-1.77-.81-1.77-1.86,0-1.69,1.39-2.45,2.9-2.45,2.74,0,2.93,2.02,2.93,2.4h-1.24Z"/>
        </g>
        <g class="st42">
          <path d="M139.66,9.91c1.41,0,2.07-1.28,2.07-2.96,0-.98-.1-2.88-2.1-2.88-1.86,0-2.07,2.01-2.07,3.25.01,2.05,1.28,2.59,2.1,2.59M136.33,3.14h1.22v1.08h.03c.31-.44.9-1.3,2.29-1.3,2.04,0,3.2,1.67,3.2,3.83,0,1.83-.76,4.28-3.37,4.28-1.03,0-1.7-.48-2.04-1.02h-.03v3.84h-1.29V3.14h-.01Z"/>
        </g>
        <g class="st35">
          <path d="M149.26,6.89c-.2.16-.53.28-2.12.48-.63.09-1.65.28-1.65,1.24,0,.84.43,1.33,1.4,1.33,1.2,0,2.37-.78,2.37-1.8v-1.25ZM144.54,5.47c.06-1.83,1.27-2.55,3.17-2.55.62,0,2.84.18,2.84,2.14v4.41c0,.32.16.46.43.46.12,0,.28-.03.42-.06v.94c-.22.06-.41.15-.7.15-1.14,0-1.32-.59-1.36-1.17-.5.54-1.28,1.25-2.77,1.25-1.41,0-2.4-.89-2.4-2.21,0-.65.19-2.14,2.33-2.41l2.13-.26c.31-.03.67-.15.67-.91,0-.81-.59-1.25-1.8-1.25-1.47,0-1.67.9-1.76,1.48h-1.2Z"/>
        </g>
        <g class="st6">
          <path d="M154.2,10.81h-1.29V3.14h1.22v1.28h.03c.51-.9,1.19-1.5,2.16-1.5.16,0,.23,0,.34.04v1.33h-.49c-1.2,0-1.96.94-1.96,2.05v4.47h0Z"/>
        </g>
        <g class="st37">
          <path d="M159.78,4.21v4.98c0,.6.51.6.78.6h.45v1.01c-.47.04-.84.1-.97.1-1.28,0-1.56-.72-1.56-1.64v-5.05h-1.04v-1.07h1.04V1h1.29v2.14h1.23v1.07h-1.22Z"/>
        </g>
        <g class="st8">
          <path d="M166.8,6.89c-.2.16-.53.28-2.13.48-.63.09-1.64.28-1.64,1.24,0,.84.42,1.33,1.39,1.33,1.2,0,2.38-.78,2.38-1.8v-1.25ZM162.08,5.47c.06-1.83,1.28-2.55,3.17-2.55.61,0,2.84.18,2.84,2.14v4.41c0,.32.16.46.43.46.12,0,.28-.03.43-.06v.94c-.22.06-.41.15-.7.15-1.15,0-1.32-.59-1.36-1.17-.5.54-1.27,1.25-2.77,1.25-1.4,0-2.4-.89-2.4-2.21,0-.65.19-2.14,2.33-2.41l2.13-.26c.31-.03.67-.15.67-.91,0-.81-.58-1.25-1.8-1.25-1.47,0-1.67.9-1.76,1.48h-1.21Z"/>
        </g>
        <g class="st0">
          <path d="M173.3,9.91c.82,0,2.09-.54,2.09-2.58,0-1.24-.2-3.26-2.07-3.26-2,0-2.1,1.89-2.1,2.88.01,1.69.68,2.96,2.08,2.96M176.63,10.18c0,1.1,0,3.85-3.56,3.85-.91,0-2.68-.25-2.93-2.28h1.29c.23,1.22,1.42,1.22,1.73,1.22,2.23,0,2.19-1.79,2.19-2.7v-.32h-.03v.06c-.34.54-1.01,1.02-2.04,1.02-2.61,0-3.37-2.44-3.37-4.28,0-2.15,1.16-3.83,3.19-3.83,1.39,0,1.98.86,2.29,1.3h.03v-1.08h1.22v7.04h-.01Z"/>
        </g>
        <g class="st22">
          <path d="M181.87,2.11h-.98l1.3-2.07h1.59l-1.91,2.07ZM183.69,6.37c-.07-1.19-.57-2.29-2.14-2.29-1.19,0-2.13,1.1-2.13,2.29h4.27ZM184.92,8.4c-.04.37-.4,1.45-1.37,2.09-.35.24-.85.53-2.08.53-2.16,0-3.43-1.63-3.43-3.84,0-2.37,1.15-4.26,3.68-4.26,2.21,0,3.3,1.76,3.3,4.47h-5.6c0,1.6.75,2.52,2.23,2.52,1.22,0,1.93-.94,1.98-1.51,0,0,1.29,0,1.29,0Z"/>
        </g>
        <g class="st21">
          <path d="M190.92,5.32c-.02-.48-.19-1.29-1.82-1.29-.4,0-1.53.13-1.53,1.08,0,.63.4.78,1.4,1.03l1.29.32c1.6.4,2.16.98,2.16,2.02,0,1.58-1.31,2.54-3.04,2.54-3.03,0-3.25-1.76-3.3-2.68h1.25c.04.6.22,1.57,2.04,1.57.92,0,1.76-.37,1.76-1.22,0-.62-.43-.82-1.53-1.1l-1.49-.37c-1.07-.26-1.77-.81-1.77-1.86,0-1.69,1.39-2.45,2.9-2.45,2.75,0,2.93,2.02,2.93,2.4h-1.25Z"/>
        </g>
        <g class="st43">
          <path d="M83.3,18.1c-.4-1.85-1.93-2.18-2.95-2.18-1.91,0-3.44,1.4-3.44,4.18,0,2.48.88,4.38,3.49,4.38.92,0,2.52-.44,3.01-2.89h1.38c-.59,3.97-3.81,4.15-4.6,4.15-2.39,0-4.74-1.55-4.74-5.6,0-3.24,1.85-5.48,4.91-5.48,2.71,0,4.12,1.69,4.33,3.44,0,0-1.39,0-1.39,0Z"/>
        </g>
        <g class="st1">
          <path d="M90.63,21.54c-.2.16-.53.28-2.12.49-.63.09-1.65.28-1.65,1.24,0,.84.43,1.34,1.4,1.34,1.2,0,2.37-.78,2.37-1.8v-1.27ZM85.92,20.12c.06-1.84,1.27-2.55,3.17-2.55.62,0,2.84.17,2.84,2.14v4.41c0,.32.16.45.43.45.12,0,.28-.03.42-.06v.94c-.22.06-.41.14-.7.14-1.14,0-1.32-.59-1.36-1.17-.5.54-1.28,1.24-2.77,1.24-1.41,0-2.4-.9-2.4-2.21,0-.64.19-2.14,2.33-2.4l2.13-.26c.31-.03.67-.14.67-.91,0-.81-.58-1.25-1.8-1.25-1.47,0-1.67.9-1.76,1.48h-1.2Z"/>
        </g>
        <g class="st39">
          <path d="M100.35,25.46h-1.29v-4.72c0-1.33-.38-2.01-1.64-2.01-.73,0-2.02.47-2.02,2.55v4.18h-1.29v-7.67h1.22v1.09h.03c.28-.41,1-1.3,2.32-1.3,1.19,0,2.68.48,2.68,2.67v5.21h-.01Z"/>
        </g>
        <g class="st26">
          <path d="M106.93,21.54c-.2.16-.53.28-2.12.49-.63.09-1.64.28-1.64,1.24,0,.84.43,1.34,1.39,1.34,1.2,0,2.37-.78,2.37-1.8v-1.27ZM102.21,20.12c.06-1.84,1.27-2.55,3.17-2.55.62,0,2.84.17,2.84,2.14v4.41c0,.32.16.45.43.45.12,0,.28-.03.42-.06v.94c-.22.06-.41.14-.7.14-1.14,0-1.32-.59-1.36-1.17-.5.54-1.28,1.24-2.77,1.24-1.41,0-2.4-.9-2.4-2.21,0-.64.19-2.14,2.33-2.4l2.13-.26c.31-.03.67-.14.67-.91,0-.81-.58-1.25-1.8-1.25-1.47,0-1.67.9-1.76,1.48h-1.2Z"/>
        </g>
        <g class="st30">
          <path d="M113.36,24.56c.82,0,2.1-.54,2.1-2.58,0-1.25-.2-3.25-2.07-3.25-2,0-2.1,1.89-2.1,2.87,0,1.69.67,2.96,2.07,2.96M116.76,25.46h-1.22v-1.05h-.03c-.56,1.04-1.44,1.27-2.18,1.27-2.61,0-3.37-2.45-3.37-4.28,0-2.16,1.16-3.83,3.2-3.83,1.39,0,1.98.86,2.28,1.3l.03-.11v-3.84h1.29s0,10.54,0,10.54Z"/>
        </g>
        <g class="st15">
          <path d="M123.22,21.54c-.2.16-.53.28-2.12.49-.63.09-1.65.28-1.65,1.24,0,.84.43,1.34,1.4,1.34,1.2,0,2.37-.78,2.37-1.8v-1.27ZM118.5,20.12c.06-1.84,1.27-2.55,3.17-2.55.62,0,2.84.17,2.84,2.14v4.41c0,.32.16.45.43.45.12,0,.28-.03.42-.06v.94c-.22.06-.41.14-.7.14-1.14,0-1.32-.59-1.36-1.17-.5.54-1.28,1.24-2.77,1.24-1.41,0-2.41-.9-2.41-2.21,0-.64.19-2.14,2.33-2.4l2.13-.26c.31-.03.67-.14.67-.91,0-.81-.59-1.25-1.8-1.25-1.47,0-1.67.9-1.76,1.48h-1.19Z"/>
        </g>
        <g class="st16">
          <rect class="st38" y=".29" width="12.41" height="25.27"/>
        </g>
        <g class="st47">
          <rect class="st38" x="39.94" y=".29" width="12.41" height="25.27"/>
        </g>
        <g class="st25">
          <path class="st38" d="M24.45,5.54l1.77-3.61,1.76,3.48c.22.37.4.34.75.16l1.51-.75-.98,4.85c-.2.95.34,1.23.92.59l2.15-2.3.57,1.31c.19.4.48.34.86.26l2.23-.47-.73,2.81-.02.06c-.09.37-.26.68.15.85l.79.39-4.59,3.89c-.47.48-.31.63-.13,1.17l.42,1.31-4.28-.78c-.53-.13-.9-.13-.91.29l.18,4.92h-1.29l.18-4.9c0-.48-.37-.47-1.23-.29l-3.96.76.51-1.31c.17-.49.22-.84-.18-1.17l-4.69-3.83.87-.53c.25-.19.26-.4.13-.82l-.88-2.86,2.26.48c.63.14.8,0,.97-.35l.62-1.28,2.23,2.53c.4.47.95.16.78-.52l-1.07-5.26,1.66.95c.26.16.54.21.7-.1"/>
        </g>
      </g>
    </g>
  </g>
</svg>