<?xml version="1.0" encoding="UTF-8"?>
<svg id="Layer_1" data-name="Layer 1" xmlns="http://www.w3.org/2000/svg" xmlns:xlink="http://www.w3.org/1999/xlink" viewBox="0 0 322.27 25.76">
  <defs>
    <style>
      .cls-1 {
        clip-path: url(#clippath-34);
      }

      .cls-2 {
        clip-path: url(#clippath-38);
      }

      .cls-3 {
        clip-path: url(#clippath-21);
      }

      .cls-4 {
        clip-path: url(#clippath-6);
      }

      .cls-5 {
        clip-path: url(#clippath-7);
      }

      .cls-6 {
        clip-path: url(#clippath-17);
      }

      .cls-7 {
        clip-path: url(#clippath-31);
      }

      .cls-8 {
        clip-path: url(#clippath-15);
      }

      .cls-9 {
        clip-path: url(#clippath-33);
      }

      .cls-10 {
        clip-path: url(#clippath-18);
      }

      .cls-11 {
        clip-path: url(#clippath-4);
      }

      .cls-12 {
        clip-path: url(#clippath-22);
      }

      .cls-13 {
        clip-path: url(#clippath-23);
      }

      .cls-14 {
        clip-path: url(#clippath-9);
      }

      .cls-15 {
        clip-path: url(#clippath-10);
      }

      .cls-16 {
        clip-path: url(#clippath-42);
      }

      .cls-17 {
        clip-path: url(#clippath-43);
      }

      .cls-18 {
        clip-path: url(#clippath-25);
      }

      .cls-19 {
        clip-path: url(#clippath-27);
      }

      .cls-20 {
        clip-path: url(#clippath-11);
      }

      .cls-21 {
        fill: none;
      }

      .cls-22 {
        clip-path: url(#clippath-36);
      }

      .cls-23 {
        clip-path: url(#clippath-35);
      }

      .cls-24 {
        clip-path: url(#clippath-28);
      }

      .cls-25 {
        clip-path: url(#clippath-1);
      }

      .cls-26 {
        clip-path: url(#clippath-45);
      }

      .cls-27 {
        clip-path: url(#clippath-40);
      }

      .cls-28 {
        clip-path: url(#clippath-5);
      }

      .cls-29 {
        clip-path: url(#clippath-20);
      }

      .cls-30 {
        clip-path: url(#clippath-8);
      }

      .cls-31 {
        clip-path: url(#clippath-41);
      }

      .cls-32 {
        clip-path: url(#clippath-3);
      }

      .cls-33 {
        clip-path: url(#clippath-26);
      }

      .cls-34 {
        clip-path: url(#clippath-12);
      }

      .cls-35 {
        clip-path: url(#clippath-14);
      }

      .cls-36 {
        clip-path: url(#clippath-30);
      }

      .cls-37 {
        clip-path: url(#clippath-19);
      }

      .cls-38 {
        clip-path: url(#clippath-32);
      }

      .cls-39 {
        clip-path: url(#clippath-39);
      }

      .cls-40 {
        clip-path: url(#clippath-16);
      }

      .cls-41 {
        clip-path: url(#clippath-2);
      }

      .cls-42 {
        clip-path: url(#clippath-29);
      }

      .cls-43 {
        clip-path: url(#clippath-37);
      }

      .cls-44 {
        clip-path: url(#clippath-13);
      }

      .cls-45 {
        clip-path: url(#clippath-24);
      }

      .cls-46 {
        clip-path: url(#clippath);
      }

      .cls-47 {
        clip-path: url(#clippath-44);
      }
    </style>
    <clipPath id="clippath">
      <rect class="cls-21" y="0" width="322.26" height="25.76"/>
    </clipPath>
    <clipPath id="clippath-1">
      <rect class="cls-21" y="0" width="322.26" height="25.76"/>
    </clipPath>
    <clipPath id="clippath-2">
      <rect class="cls-21" y="0" width="322.26" height="25.76"/>
    </clipPath>
    <clipPath id="clippath-3">
      <rect class="cls-21" y="0" width="322.26" height="25.76"/>
    </clipPath>
    <clipPath id="clippath-4">
      <rect class="cls-21" y="0" width="322.26" height="25.76"/>
    </clipPath>
    <clipPath id="clippath-5">
      <rect class="cls-21" y="0" width="322.26" height="25.76"/>
    </clipPath>
    <clipPath id="clippath-6">
      <rect class="cls-21" y="0" width="322.26" height="25.76"/>
    </clipPath>
    <clipPath id="clippath-7">
      <rect class="cls-21" y="0" width="322.26" height="25.76"/>
    </clipPath>
    <clipPath id="clippath-8">
      <rect class="cls-21" y="0" width="322.26" height="25.76"/>
    </clipPath>
    <clipPath id="clippath-9">
      <rect class="cls-21" y="0" width="322.26" height="25.76"/>
    </clipPath>
    <clipPath id="clippath-10">
      <rect class="cls-21" y="0" width="322.26" height="25.76"/>
    </clipPath>
    <clipPath id="clippath-11">
      <rect class="cls-21" y="0" width="322.26" height="25.76"/>
    </clipPath>
    <clipPath id="clippath-12">
      <rect class="cls-21" y="0" width="322.26" height="25.76"/>
    </clipPath>
    <clipPath id="clippath-13">
      <rect class="cls-21" y="0" width="322.26" height="25.76"/>
    </clipPath>
    <clipPath id="clippath-14">
      <rect class="cls-21" y="0" width="322.26" height="25.76"/>
    </clipPath>
    <clipPath id="clippath-15">
      <rect class="cls-21" y="0" width="322.26" height="25.76"/>
    </clipPath>
    <clipPath id="clippath-16">
      <rect class="cls-21" y="0" width="322.26" height="25.76"/>
    </clipPath>
    <clipPath id="clippath-17">
      <rect class="cls-21" y="0" width="322.26" height="25.76"/>
    </clipPath>
    <clipPath id="clippath-18">
      <rect class="cls-21" y="0" width="322.26" height="25.76"/>
    </clipPath>
    <clipPath id="clippath-19">
      <rect class="cls-21" y="0" width="322.26" height="25.76"/>
    </clipPath>
    <clipPath id="clippath-20">
      <rect class="cls-21" y="0" width="322.26" height="25.76"/>
    </clipPath>
    <clipPath id="clippath-21">
      <rect class="cls-21" y="0" width="322.26" height="25.76"/>
    </clipPath>
    <clipPath id="clippath-22">
      <rect class="cls-21" y="0" width="322.26" height="25.76"/>
    </clipPath>
    <clipPath id="clippath-23">
      <rect class="cls-21" y="0" width="322.26" height="25.76"/>
    </clipPath>
    <clipPath id="clippath-24">
      <rect class="cls-21" y="0" width="322.26" height="25.76"/>
    </clipPath>
    <clipPath id="clippath-25">
      <rect class="cls-21" y="0" width="322.26" height="25.76"/>
    </clipPath>
    <clipPath id="clippath-26">
      <rect class="cls-21" y="0" width="322.26" height="25.76"/>
    </clipPath>
    <clipPath id="clippath-27">
      <rect class="cls-21" y="0" width="322.26" height="25.76"/>
    </clipPath>
    <clipPath id="clippath-28">
      <rect class="cls-21" y="0" width="322.26" height="25.76"/>
    </clipPath>
    <clipPath id="clippath-29">
      <rect class="cls-21" y="0" width="322.26" height="25.76"/>
    </clipPath>
    <clipPath id="clippath-30">
      <rect class="cls-21" y="0" width="322.26" height="25.76"/>
    </clipPath>
    <clipPath id="clippath-31">
      <rect class="cls-21" y="0" width="322.26" height="25.76"/>
    </clipPath>
    <clipPath id="clippath-32">
      <rect class="cls-21" y="0" width="322.26" height="25.76"/>
    </clipPath>
    <clipPath id="clippath-33">
      <rect class="cls-21" y="0" width="322.26" height="25.76"/>
    </clipPath>
    <clipPath id="clippath-34">
      <rect class="cls-21" y="0" width="322.26" height="25.76"/>
    </clipPath>
    <clipPath id="clippath-35">
      <rect class="cls-21" y="0" width="322.26" height="25.76"/>
    </clipPath>
    <clipPath id="clippath-36">
      <rect class="cls-21" y="0" width="322.26" height="25.76"/>
    </clipPath>
    <clipPath id="clippath-37">
      <rect class="cls-21" y="0" width="322.26" height="25.76"/>
    </clipPath>
    <clipPath id="clippath-38">
      <rect class="cls-21" y="0" width="322.26" height="25.76"/>
    </clipPath>
    <clipPath id="clippath-39">
      <rect class="cls-21" y="0" width="322.26" height="25.76"/>
    </clipPath>
    <clipPath id="clippath-40">
      <rect class="cls-21" y="0" width="322.26" height="25.76"/>
    </clipPath>
    <clipPath id="clippath-41">
      <rect class="cls-21" y="0" width="322.26" height="25.76"/>
    </clipPath>
    <clipPath id="clippath-42">
      <rect class="cls-21" y="0" width="322.26" height="25.76"/>
    </clipPath>
    <clipPath id="clippath-43">
      <rect class="cls-21" y="0" width="322.26" height="25.76"/>
    </clipPath>
    <clipPath id="clippath-44">
      <rect class="cls-21" y="0" width="322.26" height="25.76"/>
    </clipPath>
    <clipPath id="clippath-45">
      <rect class="cls-21" y="0" width="322.26" height="25.76"/>
    </clipPath>
  </defs>
  <g id="EN_RGB_SSC_SPC">
    <g>
      <g class="cls-46">
        <rect y=".29" width="12.42" height="25.29"/>
      </g>
      <g class="cls-25">
        <rect x="39.98" y=".29" width="12.42" height="25.29"/>
      </g>
      <g class="cls-41">
        <g>
          <g class="cls-32">
            <path d="M24.48,5.54l1.77-3.61,1.76,3.48c.22.37.4.34.75.16l1.51-.75-.98,4.86c-.21.95.34,1.23.92.59l2.16-2.31.57,1.31c.19.4.48.34.87.27l2.23-.47-.74,2.81-.02.06c-.09.37-.26.68.15.86l.79.39-4.6,3.89c-.47.49-.31.63-.13,1.17l.43,1.31-4.29-.78c-.53-.13-.9-.13-.91.29l.18,4.92h-1.29l.18-4.9c0-.48-.37-.47-1.23-.29l-3.96.76.51-1.31c.18-.5.22-.84-.18-1.17l-4.7-3.83.87-.53c.25-.19.26-.4.13-.82l-.88-2.86,2.26.49c.63.14.81,0,.97-.35l.63-1.29,2.23,2.53c.4.47.95.16.78-.51l-1.07-5.27,1.66.95c.27.16.54.21.71-.1"/>
          </g>
          <g class="cls-11">
            <path d="M212.01,3.36c-.08-1.63-1.42-2.14-2.61-2.14-.9,0-2.41.25-2.41,1.85,0,.9.63,1.19,1.25,1.34l3.01.69c1.36.32,2.39,1.14,2.39,2.82,0,2.49-2.32,3.18-4.12,3.18-1.95,0-2.71-.59-3.18-1.01-.9-.81-1.07-1.69-1.07-2.67h1.34c0,1.91,1.56,2.47,2.9,2.47,1.03,0,2.76-.26,2.76-1.78,0-1.1-.51-1.45-2.25-1.86l-2.16-.5c-.69-.16-2.24-.64-2.24-2.48,0-1.64,1.07-3.26,3.62-3.26,3.68,0,4.05,2.2,4.11,3.36h-1.34Z"/>
          </g>
          <g class="cls-28">
            <path d="M220.55,6.37c-.08-1.19-.57-2.29-2.14-2.29-1.19,0-2.13,1.1-2.13,2.29h4.27ZM221.79,8.41c-.05.37-.4,1.45-1.37,2.1-.35.23-.85.53-2.08.53-2.16,0-3.43-1.63-3.43-3.84,0-2.38,1.15-4.27,3.69-4.27,2.21,0,3.3,1.76,3.3,4.48h-5.61c0,1.6.75,2.53,2.23,2.53,1.22,0,1.94-.94,1.98-1.51h1.29v-.02Z"/>
          </g>
          <g class="cls-4">
            <path d="M224.89,10.82h-1.29V3.14h1.21v1.28h.03c.52-.9,1.19-1.5,2.16-1.5.16,0,.23,0,.34.05v1.34h-.49c-1.2,0-1.97.94-1.97,2.05v4.46h0Z"/>
          </g>
          <g class="cls-5">
            <polygon points="233.61 3.14 235.01 3.14 232.09 10.81 230.72 10.81 227.91 3.14 229.41 3.14 231.4 9.39 231.43 9.39 233.61 3.14"/>
          </g>
          <g class="cls-30">
            <path d="M237.4,10.82h-1.29V3.14h1.29v7.68ZM236.11.28h1.29v1.47h-1.29V.28Z"/>
          </g>
          <g class="cls-14">
            <path d="M244.14,5.72c-.16-1.03-.74-1.64-1.82-1.64-1.6,0-2.11,1.53-2.11,2.89s.32,2.95,2.1,2.95c.86,0,1.62-.65,1.84-1.82h1.25c-.13,1.22-.88,2.93-3.12,2.93s-3.43-1.63-3.43-3.84c0-2.38,1.14-4.27,3.68-4.27,2.01,0,2.77,1.47,2.88,2.8h-1.27Z"/>
          </g>
          <g class="cls-15">
            <path d="M251.95,6.37c-.07-1.19-.57-2.29-2.14-2.29-1.19,0-2.13,1.1-2.13,2.29h4.27ZM253.18,8.41c-.04.37-.4,1.45-1.37,2.1-.35.23-.85.53-2.08.53-2.16,0-3.43-1.63-3.43-3.84,0-2.38,1.14-4.27,3.68-4.27,2.22,0,3.3,1.76,3.3,4.48h-5.61c0,1.6.75,2.53,2.23,2.53,1.22,0,1.93-.94,1.98-1.51h1.3v-.02Z"/>
          </g>
          <g class="cls-20">
            <path d="M259.18,5.33c-.02-.49-.19-1.29-1.82-1.29-.4,0-1.53.13-1.53,1.09,0,.63.4.78,1.4,1.03l1.29.32c1.6.4,2.16.99,2.16,2.03,0,1.58-1.31,2.54-3.04,2.54-3.04,0-3.26-1.76-3.3-2.69h1.25c.04.6.22,1.57,2.04,1.57.92,0,1.76-.37,1.76-1.22,0-.61-.43-.82-1.53-1.1l-1.5-.37c-1.07-.26-1.78-.8-1.78-1.86,0-1.69,1.39-2.45,2.9-2.45,2.75,0,2.94,2.03,2.94,2.41h-1.24Z"/>
          </g>
          <g class="cls-34">
            <path d="M269.46,9.92c1.41,0,2.07-1.27,2.07-2.96,0-.98-.1-2.88-2.1-2.88-1.86,0-2.07,2.01-2.07,3.26,0,2.04,1.28,2.58,2.1,2.58M266.13,3.14h1.22v1.09h.03c.31-.44.9-1.31,2.29-1.31,2.04,0,3.2,1.67,3.2,3.83,0,1.83-.77,4.28-3.38,4.28-1.03,0-1.7-.48-2.04-1.03h-.03v3.85h-1.29V3.14Z"/>
          </g>
          <g class="cls-44">
            <path d="M279.07,6.9c-.21.16-.53.28-2.13.48-.63.09-1.64.28-1.64,1.25,0,.84.43,1.34,1.39,1.34,1.2,0,2.38-.78,2.38-1.81v-1.26ZM274.35,5.47c.06-1.83,1.27-2.55,3.17-2.55.61,0,2.85.18,2.85,2.14v4.42c0,.32.16.45.42.45.12,0,.28-.03.43-.06v.94c-.22.06-.41.15-.7.15-1.15,0-1.32-.59-1.37-1.17-.5.55-1.27,1.25-2.77,1.25-1.41,0-2.41-.9-2.41-2.22,0-.64.19-2.14,2.33-2.41l2.13-.27c.31-.03.67-.15.67-.91,0-.81-.58-1.25-1.8-1.25-1.47,0-1.67.9-1.76,1.48h-1.19Z"/>
          </g>
          <g class="cls-35">
            <path d="M284.01,10.82h-1.29V3.14h1.22v1.28h.03c.51-.9,1.19-1.5,2.16-1.5.16,0,.24,0,.34.05v1.34h-.48c-1.21,0-1.97.94-1.97,2.05v4.46h0Z"/>
          </g>
          <g class="cls-8">
            <path d="M289.6,4.21v4.99c0,.6.52.6.78.6h.45v1.01c-.47.04-.83.1-.97.1-1.28,0-1.56-.72-1.56-1.64v-5.06h-1.04v-1.07h1.04V1h1.29v2.14h1.23v1.07s-1.22,0-1.22,0Z"/>
          </g>
          <g class="cls-40">
            <path d="M296.63,6.9c-.21.16-.53.28-2.13.48-.63.09-1.64.28-1.64,1.25,0,.84.43,1.34,1.39,1.34,1.2,0,2.38-.78,2.38-1.81v-1.26ZM291.9,5.47c.06-1.83,1.28-2.55,3.17-2.55.62,0,2.85.18,2.85,2.14v4.42c0,.32.16.45.42.45.12,0,.28-.03.43-.06v.94c-.22.06-.41.15-.7.15-1.15,0-1.32-.59-1.37-1.17-.5.55-1.27,1.25-2.77,1.25-1.41,0-2.41-.9-2.41-2.22,0-.64.19-2.14,2.33-2.41l2.13-.27c.31-.03.67-.15.67-.91,0-.81-.58-1.25-1.8-1.25-1.47,0-1.67.9-1.76,1.48h-1.19Z"/>
          </g>
          <g class="cls-6">
            <path d="M303.14,9.92c.82,0,2.1-.54,2.1-2.58,0-1.25-.2-3.26-2.07-3.26-2,0-2.1,1.89-2.1,2.88,0,1.69.66,2.96,2.07,2.96M306.47,10.18c0,1.1-.02,3.86-3.57,3.86-.91,0-2.68-.25-2.93-2.29h1.29c.23,1.22,1.42,1.22,1.73,1.22,2.23,0,2.19-1.79,2.19-2.7v-.32h-.03v.06c-.34.55-1.01,1.03-2.04,1.03-2.61,0-3.37-2.45-3.37-4.28,0-2.16,1.16-3.83,3.2-3.83,1.39,0,1.98.87,2.29,1.31h.03v-1.1h1.22v7.04h-.01Z"/>
          </g>
          <g class="cls-10">
            <path d="M311.72,2.11h-.98l1.3-2.07h1.59l-1.91,2.07ZM313.54,6.37c-.07-1.19-.57-2.29-2.14-2.29-1.19,0-2.13,1.1-2.13,2.29h4.27ZM314.77,8.41c-.04.37-.4,1.45-1.37,2.1-.35.23-.85.53-2.08.53-2.16,0-3.43-1.63-3.43-3.84,0-2.38,1.14-4.27,3.68-4.27,2.22,0,3.3,1.76,3.3,4.48h-5.61c0,1.6.75,2.53,2.23,2.53,1.22,0,1.93-.94,1.98-1.51h1.3v-.02Z"/>
          </g>
          <g class="cls-37">
            <path d="M320.77,5.33c-.01-.49-.19-1.29-1.82-1.29-.4,0-1.53.13-1.53,1.09,0,.63.4.78,1.4,1.03l1.29.32c1.6.4,2.16.99,2.16,2.03,0,1.58-1.31,2.54-3.04,2.54-3.04,0-3.26-1.76-3.3-2.69h1.25c.04.6.22,1.57,2.04,1.57.92,0,1.76-.37,1.76-1.22,0-.61-.42-.82-1.52-1.1l-1.5-.37c-1.07-.26-1.78-.8-1.78-1.86,0-1.69,1.39-2.45,2.9-2.45,2.75,0,2.94,2.03,2.94,2.41h-1.25Z"/>
          </g>
          <g class="cls-29">
            <path d="M213.05,18.12c-.39-1.85-1.93-2.19-2.95-2.19-1.91,0-3.45,1.41-3.45,4.18,0,2.48.88,4.39,3.5,4.39.92,0,2.52-.44,3.01-2.89h1.38c-.59,3.98-3.82,4.15-4.61,4.15-2.4,0-4.74-1.56-4.74-5.61,0-3.24,1.85-5.49,4.92-5.49,2.71,0,4.13,1.69,4.33,3.45h-1.39Z"/>
          </g>
          <g class="cls-3">
            <path d="M220.39,21.56c-.21.16-.53.28-2.13.48-.63.09-1.65.28-1.65,1.25,0,.83.43,1.33,1.4,1.33,1.2,0,2.38-.78,2.38-1.81v-1.25ZM215.67,20.14c.06-1.83,1.28-2.55,3.17-2.55.62,0,2.85.18,2.85,2.14v4.42c0,.32.16.46.43.46.12,0,.28-.03.42-.06v.94c-.22.06-.41.15-.7.15-1.14,0-1.32-.59-1.36-1.17-.5.54-1.28,1.25-2.77,1.25-1.41,0-2.41-.9-2.41-2.22,0-.64.19-2.14,2.33-2.41l2.13-.27c.31-.03.68-.15.68-.91,0-.8-.59-1.25-1.81-1.25-1.47,0-1.67.89-1.76,1.48h-1.2Z"/>
          </g>
          <g class="cls-12">
            <path d="M230.12,25.48h-1.29v-4.73c0-1.34-.38-2.01-1.64-2.01-.73,0-2.03.47-2.03,2.55v4.18h-1.29v-7.67h1.22v1.09h.03c.28-.41,1-1.31,2.32-1.31,1.19,0,2.69.49,2.69,2.67v5.23h-.01Z"/>
          </g>
          <g class="cls-13">
            <path d="M236.7,21.56c-.21.16-.53.28-2.13.48-.63.09-1.65.28-1.65,1.25,0,.83.43,1.33,1.39,1.33,1.21,0,2.38-.78,2.38-1.81v-1.25h0ZM231.98,20.14c.06-1.83,1.28-2.55,3.17-2.55.62,0,2.85.18,2.85,2.14v4.42c0,.32.16.46.43.46.12,0,.28-.03.43-.06v.94c-.22.06-.41.15-.71.15-1.14,0-1.32-.59-1.36-1.17-.5.54-1.28,1.25-2.77,1.25-1.41,0-2.41-.9-2.41-2.22,0-.64.19-2.14,2.33-2.41l2.13-.27c.31-.03.68-.15.68-.91,0-.8-.59-1.25-1.81-1.25-1.47,0-1.67.89-1.76,1.48h-1.2Z"/>
          </g>
          <g class="cls-45">
            <path d="M243.14,24.58c.82,0,2.1-.54,2.1-2.58,0-1.25-.2-3.26-2.07-3.26-2,0-2.1,1.89-2.1,2.88,0,1.69.66,2.96,2.07,2.96M246.54,25.48h-1.22v-1.06h-.03c-.56,1.04-1.44,1.28-2.19,1.28-2.62,0-3.38-2.45-3.38-4.28,0-2.16,1.16-3.83,3.2-3.83,1.4,0,1.98.87,2.29,1.31l.03-.1v-3.85h1.29v10.53h.01Z"/>
          </g>
          <g class="cls-18">
            <path d="M253.01,21.56c-.21.16-.53.28-2.13.48-.63.09-1.65.28-1.65,1.25,0,.83.43,1.33,1.4,1.33,1.2,0,2.38-.78,2.38-1.81v-1.25ZM248.28,20.14c.06-1.83,1.28-2.55,3.17-2.55.62,0,2.85.18,2.85,2.14v4.42c0,.32.16.46.43.46.12,0,.28-.03.43-.06v.94c-.22.06-.41.15-.71.15-1.14,0-1.32-.59-1.36-1.17-.5.54-1.28,1.25-2.77,1.25-1.41,0-2.41-.9-2.41-2.22,0-.64.19-2.14,2.33-2.41l2.13-.27c.31-.03.68-.15.68-.91,0-.8-.59-1.25-1.81-1.25-1.47,0-1.67.89-1.76,1.48h-1.2Z"/>
          </g>
          <g class="cls-33">
            <path d="M82.34,3.36c-.07-1.63-1.42-2.14-2.61-2.14-.89,0-2.41.25-2.41,1.85,0,.9.63,1.19,1.25,1.34l3.01.69c1.36.32,2.39,1.14,2.39,2.82,0,2.49-2.32,3.18-4.12,3.18-1.95,0-2.71-.59-3.18-1.01-.9-.81-1.07-1.69-1.07-2.67h1.34c0,1.91,1.55,2.47,2.9,2.47,1.03,0,2.76-.26,2.76-1.78,0-1.1-.51-1.45-2.25-1.86l-2.16-.5c-.69-.16-2.25-.64-2.25-2.48,0-1.64,1.07-3.26,3.62-3.26,3.68,0,4.05,2.2,4.11,3.36h-1.33Z"/>
          </g>
          <g class="cls-19">
            <path d="M91.85,10.82h-1.29v-5.02c0-1.04-.29-1.72-1.53-1.72-1.06,0-2.14.62-2.14,2.55v4.18h-1.29V.28h1.29v3.89h.03c.37-.49,1.01-1.25,2.24-1.25s2.69.48,2.69,2.67v5.23Z"/>
          </g>
          <g class="cls-24">
            <path d="M98.44,6.9c-.21.16-.53.28-2.13.48-.63.09-1.64.28-1.64,1.25,0,.84.43,1.34,1.4,1.34,1.2,0,2.38-.78,2.38-1.81v-1.26h-.01ZM93.71,5.47c.06-1.83,1.28-2.55,3.17-2.55.62,0,2.85.18,2.85,2.14v4.42c0,.32.16.45.43.45.12,0,.28-.03.43-.06v.94c-.22.06-.41.15-.7.15-1.14,0-1.32-.59-1.37-1.17-.5.55-1.28,1.25-2.77,1.25-1.41,0-2.41-.9-2.41-2.22,0-.64.19-2.14,2.33-2.41l2.13-.27c.31-.03.68-.15.68-.91,0-.81-.59-1.25-1.8-1.25-1.47,0-1.67.9-1.76,1.48h-1.21Z"/>
          </g>
          <g class="cls-42">
            <path d="M103.38,10.82h-1.29V3.14h1.22v1.28h.03c.51-.9,1.19-1.5,2.16-1.5.16,0,.23,0,.34.05v1.34h-.48c-1.2,0-1.97.94-1.97,2.05v4.46h0Z"/>
          </g>
          <g class="cls-36">
            <path d="M111.78,6.37c-.07-1.19-.57-2.29-2.14-2.29-1.19,0-2.13,1.1-2.13,2.29h4.27ZM113.02,8.41c-.05.37-.4,1.45-1.36,2.1-.35.23-.85.53-2.08.53-2.16,0-3.43-1.63-3.43-3.84,0-2.38,1.14-4.27,3.68-4.27,2.22,0,3.3,1.76,3.3,4.48h-5.61c0,1.6.75,2.53,2.23,2.53,1.22,0,1.94-.94,1.98-1.51h1.29v-.02Z"/>
          </g>
          <g class="cls-7">
            <path d="M117.62,9.92c.82,0,2.1-.54,2.1-2.58,0-1.25-.21-3.26-2.07-3.26-2,0-2.1,1.89-2.1,2.88,0,1.68.66,2.96,2.07,2.96M121.02,10.82h-1.22v-1.06h-.03c-.56,1.04-1.44,1.28-2.19,1.28-2.61,0-3.38-2.45-3.38-4.28,0-2.16,1.16-3.83,3.2-3.83,1.39,0,1.98.87,2.29,1.31l.03-.1V.28h1.29v10.54h.01Z"/>
          </g>
          <g class="cls-38">
            <path d="M133.4,3.36c-.07-1.63-1.42-2.14-2.61-2.14-.9,0-2.41.25-2.41,1.85,0,.9.63,1.19,1.25,1.34l3.01.69c1.36.32,2.39,1.14,2.39,2.82,0,2.49-2.32,3.18-4.12,3.18-1.95,0-2.71-.59-3.18-1.01-.9-.81-1.07-1.69-1.07-2.67h1.34c0,1.91,1.56,2.47,2.91,2.47,1.03,0,2.76-.26,2.76-1.78,0-1.1-.51-1.45-2.24-1.86l-2.16-.5c-.71-.17-2.27-.66-2.27-2.49,0-1.64,1.07-3.26,3.63-3.26,3.68,0,4.05,2.2,4.11,3.36h-1.34Z"/>
          </g>
          <g class="cls-9">
            <path d="M141.95,6.37c-.07-1.19-.57-2.29-2.14-2.29-1.19,0-2.13,1.1-2.13,2.29h4.27ZM143.19,8.41c-.04.37-.4,1.45-1.36,2.1-.35.23-.85.53-2.08.53-2.16,0-3.43-1.63-3.43-3.84,0-2.38,1.14-4.27,3.68-4.27,2.21,0,3.3,1.76,3.3,4.48h-5.61c0,1.6.75,2.53,2.23,2.53,1.22,0,1.94-.94,1.98-1.51h1.29v-.02Z"/>
          </g>
          <g class="cls-1">
            <path d="M146.29,10.82h-1.29V3.14h1.22v1.28h.03c.51-.9,1.19-1.5,2.16-1.5.16,0,.23,0,.34.05v1.34h-.49c-1.2,0-1.97.94-1.97,2.05v4.46Z"/>
          </g>
          <g class="cls-23">
            <polygon points="155.01 3.14 156.41 3.14 153.49 10.81 152.11 10.81 149.31 3.14 150.81 3.14 152.8 9.39 152.83 9.39 155.01 3.14"/>
          </g>
          <g class="cls-22">
            <path d="M158.8,10.82h-1.29V3.14h1.29v7.68ZM157.51.28h1.29v1.47h-1.29V.28Z"/>
          </g>
          <g class="cls-43">
            <path d="M165.53,5.72c-.16-1.03-.73-1.64-1.82-1.64-1.6,0-2.11,1.53-2.11,2.89s.32,2.95,2.1,2.95c.87,0,1.62-.65,1.84-1.82h1.25c-.13,1.22-.88,2.93-3.13,2.93s-3.43-1.63-3.43-3.84c0-2.38,1.15-4.27,3.69-4.27,2.01,0,2.77,1.47,2.88,2.8h-1.27Z"/>
          </g>
          <g class="cls-2">
            <path d="M173.35,6.37c-.07-1.19-.57-2.29-2.14-2.29-1.19,0-2.13,1.1-2.13,2.29h4.27ZM174.59,8.41c-.05.37-.4,1.45-1.36,2.1-.35.23-.85.53-2.08.53-2.16,0-3.43-1.63-3.43-3.84,0-2.38,1.14-4.27,3.68-4.27,2.22,0,3.3,1.76,3.3,4.48h-5.61c0,1.6.75,2.53,2.23,2.53,1.22,0,1.94-.94,1.98-1.51h1.29v-.02Z"/>
          </g>
          <g class="cls-39">
            <path d="M180.58,5.33c0-.49-.19-1.29-1.82-1.29-.4,0-1.53.13-1.53,1.09,0,.63.4.78,1.4,1.03l1.29.32c1.6.4,2.16.99,2.16,2.03,0,1.58-1.31,2.54-3.04,2.54-3.04,0-3.26-1.76-3.3-2.69h1.25c.05.6.22,1.57,2.04,1.57.92,0,1.76-.37,1.76-1.22,0-.61-.42-.82-1.53-1.1l-1.5-.37c-1.07-.26-1.77-.8-1.77-1.86,0-1.69,1.39-2.45,2.9-2.45,2.74,0,2.93,2.03,2.93,2.41h-1.24Z"/>
          </g>
          <g class="cls-27">
            <path d="M83.38,18.12c-.4-1.85-1.94-2.19-2.95-2.19-1.91,0-3.45,1.41-3.45,4.18,0,2.48.88,4.39,3.49,4.39.92,0,2.53-.44,3.01-2.89h1.38c-.59,3.98-3.82,4.15-4.61,4.15-2.39,0-4.74-1.56-4.74-5.61,0-3.24,1.85-5.49,4.92-5.49,2.71,0,4.12,1.69,4.33,3.45h-1.38Z"/>
          </g>
          <g class="cls-31">
            <path d="M90.72,21.56c-.21.16-.53.28-2.13.48-.63.09-1.64.28-1.64,1.25,0,.83.43,1.33,1.39,1.33,1.2,0,2.38-.78,2.38-1.81v-1.25ZM86,20.14c.06-1.83,1.28-2.55,3.17-2.55.62,0,2.85.18,2.85,2.14v4.42c0,.32.16.46.43.46.12,0,.28-.03.42-.06v.94c-.22.06-.41.15-.7.15-1.14,0-1.32-.59-1.36-1.17-.5.54-1.28,1.25-2.77,1.25-1.41,0-2.41-.9-2.41-2.22,0-.64.19-2.14,2.33-2.41l2.13-.27c.31-.03.68-.15.68-.91,0-.8-.59-1.25-1.8-1.25-1.47,0-1.67.89-1.76,1.48h-1.21Z"/>
          </g>
          <g class="cls-16">
            <path d="M100.45,25.48h-1.29v-4.73c0-1.34-.38-2.01-1.64-2.01-.73,0-2.03.47-2.03,2.55v4.18h-1.29v-7.67h1.22v1.09h.03c.28-.41,1-1.31,2.32-1.31,1.19,0,2.69.49,2.69,2.67v5.23h-.01Z"/>
          </g>
          <g class="cls-17">
            <path d="M107.03,21.56c-.21.16-.53.28-2.13.48-.63.09-1.64.28-1.64,1.25,0,.83.43,1.33,1.4,1.33,1.2,0,2.38-.78,2.38-1.81v-1.25h-.01ZM102.31,20.14c.06-1.83,1.28-2.55,3.17-2.55.62,0,2.85.18,2.85,2.14v4.42c0,.32.16.46.43.46.12,0,.28-.03.43-.06v.94c-.22.06-.41.15-.71.15-1.15,0-1.32-.59-1.36-1.17-.5.54-1.28,1.25-2.77,1.25-1.41,0-2.41-.9-2.41-2.22,0-.64.19-2.14,2.33-2.41l2.13-.27c.31-.03.68-.15.68-.91,0-.8-.59-1.25-1.81-1.25-1.47,0-1.67.89-1.76,1.48h-1.2Z"/>
          </g>
          <g class="cls-47">
            <path d="M113.47,24.58c.82,0,2.1-.54,2.1-2.58,0-1.25-.21-3.26-2.07-3.26-2,0-2.1,1.89-2.1,2.88,0,1.69.66,2.96,2.07,2.96M116.87,25.48h-1.22v-1.06h-.03c-.56,1.04-1.44,1.28-2.19,1.28-2.61,0-3.38-2.45-3.38-4.28,0-2.16,1.16-3.83,3.2-3.83,1.39,0,1.98.87,2.29,1.31l.03-.1v-3.85h1.29v10.53h.01Z"/>
          </g>
          <g class="cls-26">
            <path d="M123.34,21.56c-.2.16-.53.28-2.13.48-.63.09-1.64.28-1.64,1.25,0,.83.43,1.33,1.39,1.33,1.2,0,2.38-.78,2.38-1.81v-1.25ZM118.61,20.14c.06-1.83,1.28-2.55,3.17-2.55.62,0,2.85.18,2.85,2.14v4.42c0,.32.16.46.43.46.12,0,.28-.03.43-.06v.94c-.22.06-.41.15-.71.15-1.14,0-1.32-.59-1.36-1.17-.5.54-1.28,1.25-2.77,1.25-1.41,0-2.41-.9-2.41-2.22,0-.64.19-2.14,2.33-2.41l2.13-.27c.31-.03.68-.15.68-.91,0-.8-.59-1.25-1.81-1.25-1.47,0-1.67.89-1.76,1.48h-1.2Z"/>
          </g>
        </g>
      </g>
    </g>
  </g>
</svg>